<?xml version="1.0" encoding="UTF-8" standalone="no"?>
<!-- Uploaded to: SVG Repo, www.svgrepo.com, Transformed by: SVG Repo Mixer Tools -->

<svg
   width="800px"
   height="800px"
   viewBox="0 0 24 24"
   fill="none"
   version="1.1"
   id="svg2"
   sodipodi:docname="icon.svg"
   inkscape:version="1.4.2 (ebf0e940d0, 2025-05-08)"
   xmlns:inkscape="http://www.inkscape.org/namespaces/inkscape"
   xmlns:sodipodi="http://sodipodi.sourceforge.net/DTD/sodipodi-0.dtd"
   xmlns="http://www.w3.org/2000/svg"
   xmlns:svg="http://www.w3.org/2000/svg">
  <defs
     id="defs2" />
  <sodipodi:namedview
     id="namedview2"
     pagecolor="#ffffff"
     bordercolor="#000000"
     borderopacity="0.25"
     inkscape:showpageshadow="2"
     inkscape:pageopacity="0.0"
     inkscape:pagecheckerboard="0"
     inkscape:deskcolor="#d1d1d1"
     inkscape:zoom="0.755625"
     inkscape:cx="313.64764"
     inkscape:cy="392.39041"
     inkscape:window-width="2648"
     inkscape:window-height="1418"
     inkscape:window-x="0"
     inkscape:window-y="0"
     inkscape:window-maximized="1"
     inkscape:current-layer="svg2" />
  <g
     id="SVGRepo_bgCarrier"
     stroke-width="0" />
  <g
     id="SVGRepo_tracerCarrier"
     stroke-linecap="round"
     stroke-linejoin="round" />
  <g
     id="SVGRepo_iconCarrier">
    <path
       d="M17.53 2.78339H6.47009C4.43401 2.78339 2.78345 4.43395 2.78345 6.47002V17.5299C2.78345 19.566 4.43401 21.2166 6.47009 21.2166H17.53C19.5661 21.2166 21.2167 19.566 21.2167 17.53V6.47003C21.2167 4.43395 19.5661 2.78339 17.53 2.78339Z"
       stroke="#1C1C1C"
       stroke-width="1.7"
       stroke-linecap="round"
       id="path1" />
    <path
       d="M8.31341 21.2166C8.31341 19.2476 8.85425 16.3772 10.4311 13.8433M21.2166 8.31335C15.6197 8.31335 12.2988 10.8423 10.4311 13.8433M2.78345 12C4.19526 11.477 7.70134 11.1135 10.4311 13.8433"
       stroke="#1C1C1C"
       stroke-width="1.7"
       stroke-linecap="round"
       id="path2" />
    <circle
       cx="7.85246"
       cy="6.93089"
       r="1.38249"
       fill="#DF1463"
       id="circle2" />
  </g>
  <path
     style="fill:#0066ff;stroke:none;stroke-width:0.30479"
     d="m 9.1288623,20.130206 c 0.153472,-1.725106 0.794861,-3.801875 1.6551127,-5.359133 1.909733,-3.457064 5.169196,-5.4648132 9.384155,-5.78041 l 0.378721,-0.028357 -0.01124,4.547851 -0.01124,4.547851 -0.106869,0.313041 c -0.16489,0.482995 -0.382579,0.836667 -0.726706,1.180655 -0.511971,0.511765 -1.09627,0.787024 -1.819235,0.85703 -0.202796,0.01964 -2.259201,0.0362 -4.569788,0.03681 l -4.2010678,0.0011 z"
     id="path3" />
  <path
     style="fill:#ff7f2a;stroke:none;stroke-width:0.31138"
     d="M 6.1783474,20.523184 C 5.7745522,20.479978 5.5647288,20.418827 5.1772035,20.231411 4.5598447,19.932842 4.0850517,19.450656 3.7943882,18.827063 3.525812,18.250857 3.5277512,18.27832 3.539617,15.218855 l 0.010727,-2.765894 0.2711431,-0.05705 c 0.1770315,-0.03725 0.5824358,-0.05828 1.1680016,-0.06058 0.8206805,-0.0032 0.9415076,0.0059 1.4225237,0.107862 0.6367246,0.13492 1.1304116,0.302419 1.6851946,0.571758 0.3824183,0.185659 1.034698,0.593105 1.2610377,0.787708 l 0.093037,0.07999 -0.3282789,0.682265 C 8.311784,16.250876 7.7844629,18.081643 7.5860799,19.900845 l -0.072509,0.664912 -0.5216118,-0.0057 c -0.2868864,-0.0031 -0.6530119,-0.01972 -0.8136121,-0.03691 z"
     id="path4" />
  <path
     style="fill:#ffffff;stroke:none;stroke-width:0.305219"
     d="M 10.252633,12.753598 C 8.6892597,11.56334 6.3722937,10.929922 4.3208594,11.131954 c -0.2328944,0.02294 -0.4745776,0.05211 -0.5370733,0.06484 l -0.1136287,0.02314 0.011406,-2.5692946 0.011406,-2.5692939 0.1261542,-0.352371 C 4.127828,4.8667114 4.8073767,4.2057646 5.696531,3.9029618 L 6.0236433,3.7915633 h 6.1946847 c 5.890014,0 6.207756,0.0037 6.460462,0.075185 0.809228,0.2289208 1.483906,0.783242 1.855052,1.524125 0.236133,0.4713683 0.278508,0.6881591 0.300797,1.5389206 l 0.02008,0.7666688 h -0.100066 c -0.265323,0 -1.431519,0.1323673 -1.970235,0.2236283 -3.331083,0.5643013 -6.020821,2.107896 -8.017795,4.601274 -0.153098,0.191156 -0.290659,0.35261 -0.305691,0.358787 -0.01503,0.0062 -0.10877,-0.05078 -0.208308,-0.126555 z M 8.5706374,8.4530752 C 9.688949,7.9427368 9.6860641,6.340929 8.5659233,5.8354119 7.8315985,5.5040123 6.9871244,5.8313906 6.6478647,6.5789873 6.5095711,6.8837329 6.5173302,7.4316717 6.6643815,7.7453871 6.8476759,8.136423 7.2238714,8.4521752 7.6279014,8.554099 c 0.253812,0.064029 0.6814811,0.0182 0.942736,-0.1010238 z"
     id="path5" />
</svg>
